<svg height="24" viewBox="-60 0 444 444" width="24" xmlns="http://www.w3.org/2000/svg"><path d="m157.152344 133.433594c0 10.449218-8.472656 18.917968-18.921875 18.917968s-18.917969-8.46875-18.917969-18.917968c0-10.449219 8.46875-18.921875 18.917969-18.921875s18.921875 8.472656 18.921875 18.921875zm0 0"/><path d="m179 190.84375c-.050781-8.050781-5.890625-14.894531-13.835938-16.207031-1.6875 1.855469-3.566406 3.53125-5.597656 5.003906-14.890625 10.933594-35.652344 8.765625-47.964844-5.003906-7.894531 1.335937-13.65625 8.199219-13.601562 16.207031v26.15625h81zm0 0"/><path d="m138.746094 257.757812c50.941406 0 92.238281-41.296874 92.238281-92.238281 0-50.941406-41.296875-92.238281-92.238281-92.238281s-92.238282 41.296875-92.238282 92.238281c.058594 50.917969 41.320313 92.179688 92.238282 92.238281zm-.515625-155.246093c17.078125 0 30.921875 13.84375 30.921875 30.921875 0 17.074218-13.84375 30.917968-30.921875 30.917968-17.074219 0-30.917969-13.84375-30.917969-30.917968.019531-17.070313 13.851562-30.902344 30.917969-30.921875zm-52.230469 88.332031c0-15.667969 12.460938-28.84375 28.132812-28.84375 1.929688.058594 3.71875 1.023438 4.832032 2.601562 7.789062 10.660157 22.734375 13.015626 33.421875 5.261719 1.953125-1.46875 3.675781-3.226562 5.109375-5.210937 1.109375-1.589844 2.898437-2.574219 4.835937-2.652344 15.667969 0 28.667969 13.175781 28.667969 28.84375v31.679688c-.078125 3.457031-2.796875 6.273437-6.25 6.476562h-93.035156c-3.3125 0-5.714844-3.160156-5.714844-6.476562zm0 0"/><path d="m245 76.964844v-76.964844h-245v444h324v-361h-73.140625c-1.578125-.011719-3.089844-.660156-4.191406-1.792969-1.101563-1.132812-1.699219-2.660156-1.667969-4.242187zm-106.253906-15.683594c57.570312 0 104.238281 46.667969 104.238281 104.238281 0 57.570313-46.667969 104.238281-104.238281 104.238281-57.570313 0-104.238282-46.667968-104.238282-104.238281.066407-57.542969 46.695313-104.175781 104.238282-104.238281zm43.589844 260.71875c0 3.3125-2.6875 6-6 6h-127.195313c-3.3125 0-6-2.6875-6-6s2.6875-6 6-6h127.195313c3.3125 0 6 2.6875 6 6zm92.363281 54c0 3.3125-2.683594 6-6 6h-219.558594c-3.3125 0-6-2.6875-6-6s2.6875-6 6-6h219.558594c3.316406 0 6 2.6875 6 6zm0 0"/><path d="m257 9.0625v61.9375h59.347656zm0 0"/></svg>